<svg width="11" height="10" viewBox="0 0 11 10" fill="none" xmlns="http://www.w3.org/2000/svg">
<path d="M10.124 3.74365H8.69904V5.00999H10.124V3.74365Z" fill="#62B0E5"/>
<path d="M8.69825 3.74365H7.27246V5.00999H8.69825V3.74365Z" fill="#62B0E5"/>
<path d="M8.69825 2.495H7.27246V3.74286H8.69825V2.495Z" fill="#62B0E5"/>
<path d="M7.27247 8.75073H5.82477V10H7.27247V8.75073Z" fill="#62B0E5"/>
<path d="M7.27247 7.505H5.82477V8.75216H7.27247V7.505Z" fill="#62B0E5"/>
<path d="M7.27247 6.25574H5.82477V7.50502H7.27247V6.25574Z" fill="#62B0E5"/>
<path d="M7.27247 5.00928H5.82477V6.25644H7.27247V5.00928Z" fill="#62B0E5"/>
<path d="M7.27247 3.74365H5.82477V5.00999H7.27247V3.74365Z" fill="#62B0E5"/>
<path d="M7.27247 2.495H5.82477V3.74286H7.27247V2.495Z" fill="#62B0E5"/>
<path d="M7.27247 1.24719H5.82477V2.49506H7.27247V1.24719Z" fill="#62B0E5"/>
<path d="M5.82476 8.75073H4.39978V10H5.82476V8.75073Z" fill="#62B0E5"/>
<path d="M5.82476 7.505H4.39978V8.75216H5.82476V7.505Z" fill="#62B0E5"/>
<path d="M5.82476 6.25574H4.39978V7.50502H5.82476V6.25574Z" fill="#62B0E5"/>
<path d="M5.82476 5.00928H4.39978V6.25644H5.82476V5.00928Z" fill="#62B0E5"/>
<path d="M5.82476 3.74365H4.39978V5.00999H5.82476V3.74365Z" fill="#62B0E5"/>
<path d="M5.82476 2.495H4.39978V3.74286H5.82476V2.495Z" fill="#62B0E5"/>
<path d="M5.82476 1.24719H4.39978V2.49506H5.82476V1.24719Z" fill="#62B0E5"/>
<path d="M5.82476 0H4.39978V1.24787H5.82476V0Z" fill="#62B0E5"/>
<path d="M4.40058 8.75073H2.97479V10H4.40058V8.75073Z" fill="#62B0E5"/>
<path d="M4.40058 7.505H2.97479V8.75216H4.40058V7.505Z" fill="#62B0E5"/>
<path d="M4.40058 6.25574H2.97479V7.50502H4.40058V6.25574Z" fill="#62B0E5"/>
<path d="M4.40058 5.00928H2.97479V6.25644H4.40058V5.00928Z" fill="#62B0E5"/>
<path d="M4.40058 3.74365H2.97479V5.00999H4.40058V3.74365Z" fill="#62B0E5"/>
<path d="M4.40058 2.495H2.97479V3.74286H4.40058V2.495Z" fill="#62B0E5"/>
<path d="M4.40058 1.24719H2.97479V2.49506H4.40058V1.24719Z" fill="#62B0E5"/>
<path d="M2.97478 3.74365H1.5498V5.00999H2.97478V3.74365Z" fill="#62B0E5"/>
<path d="M2.97478 2.495H1.5498V3.74286H2.97478V2.495Z" fill="#62B0E5"/>
<path d="M1.54981 3.74365H0.124023V5.00999H1.54981V3.74365Z" fill="#62B0E5"/>
</svg>
