<svg width="33" height="33" viewBox="0 0 33 33" fill="none" xmlns="http://www.w3.org/2000/svg">
<rect y="6" width="3" height="3" fill="#62B0E5"/>
<rect y="5" width="3" height="3" fill="#62B0E5"/>
<rect width="3" height="3" transform="matrix(-1 0 0 1 33 5)" fill="#62B0E5"/>
<rect x="3" y="7" width="3" height="3" fill="#62B0E5"/>
<rect width="3" height="3" transform="matrix(-1 0 0 1 30 7)" fill="#62B0E5"/>
<rect x="6" y="9" width="3" height="3" fill="#62B0E5"/>
<rect width="3" height="3" transform="matrix(-1 0 0 1 27 9)" fill="#62B0E5"/>
<rect x="9" y="11" width="3" height="3" fill="#62B0E5"/>
<rect width="3" height="3" transform="matrix(-1 0 0 1 24 11)" fill="#62B0E5"/>
<rect x="12" y="13" width="3" height="3" fill="#62B0E5"/>
<rect width="3" height="3" transform="matrix(-1 0 0 1 21 13)" fill="#62B0E5"/>
<rect x="15" y="15" width="3" height="3" fill="#62B0E5"/>
<rect width="3" height="3" transform="matrix(-1 0 0 1 18 15)" fill="#62B0E5"/>
<rect x="18" y="17" width="3" height="3" fill="#62B0E5"/>
<rect width="3" height="3" transform="matrix(-1 0 0 1 15 17)" fill="#62B0E5"/>
<rect x="21" y="19" width="3" height="3" fill="#62B0E5"/>
<rect width="3" height="3" transform="matrix(-1 0 0 1 12 19)" fill="#62B0E5"/>
<rect x="24" y="21" width="3" height="3" fill="#62B0E5"/>
<rect width="3" height="3" transform="matrix(-1 0 0 1 9 21)" fill="#62B0E5"/>
<rect x="27" y="23" width="3" height="3" fill="#62B0E5"/>
<rect width="3" height="3" transform="matrix(-1 0 0 1 6 23)" fill="#62B0E5"/>
<rect x="30" y="25" width="3" height="3" fill="#62B0E5"/>
<rect width="3" height="3" transform="matrix(-1 0 0 1 3 25)" fill="#62B0E5"/>
</svg>
