<svg width="13" height="13" viewBox="0 0 13 13" fill="none" xmlns="http://www.w3.org/2000/svg">
<path fill-rule="evenodd" clip-rule="evenodd" d="M11.75 10.1562V7.3125H13V10.1562C13 11.7268 11.7268 13 10.1562 13H2.84375C1.27319 13 0 11.7268 0 10.1562V2.84375C0 1.27319 1.27319 0 2.84375 0H5.28125V1.25H2.84375C1.72192 1.25 1.25 1.72192 1.25 2.84375V10.1562C1.25 11.2781 1.72192 11.75 2.84375 11.75H10.1562C11.2781 11.75 11.75 11.2781 11.75 10.1562ZM3.4375 10.75L2.25024 9.56264L10.0002 2H6.90625V0.8125H11.7812C12.0056 0.8125 12.1875 0.994373 12.1875 1.21875V5.6875H11.0001V3.25L3.4375 10.75Z" fill="#E3E3E3"/>
</svg>
